<?xml version="1.0" standalone="no"?>
<!DOCTYPE svg PUBLIC "-//W3C//DTD SVG 20010904//EN"
 "http://www.w3.org/TR/2001/REC-SVG-20010904/DTD/svg10.dtd">
<svg version="1.0" xmlns="http://www.w3.org/2000/svg"
 width="300" height="300" viewBox="0 0 300 300"
 preserveAspectRatio="xMidYMid meet">
<rect width="300" height="300" fill="white" style="z-index: -10" rx="40" ry="40"/>
<g transform="translate(0,300) scale(0.1,-0.1)"
fill="#000000" stroke="none">
<path d="M450 2199 l0 -37 76 -4 c132 -6 141 -34 130 -398 -7 -250 0 -324 40
-404 78 -155 234 -220 585 -242 l111 -7 -3 -216 c-4 -186 -7 -221 -22 -244
-33 -50 -62 -61 -174 -65 l-103 -4 0 -37 0 -36 405 0 405 0 0 38 0 37 -90 0
c-118 0 -155 15 -169 67 -5 21 -13 131 -17 245 -6 173 -5 208 7 212 8 2 74 9
147 16 250 22 422 76 490 155 88 99 103 176 95 489 -7 271 -2 324 32 363 20
25 31 28 99 31 l76 4 0 37 0 36 -235 0 -235 0 5 -40 c15 -107 25 -287 25 -442
0 -324 -45 -436 -197 -493 -68 -26 -175 -47 -253 -51 l-55 -3 -3 299 c-1 165
2 369 6 453 11 193 13 195 137 201 l85 3 0 37 0 36 -340 0 -340 0 0 -37 0 -38
60 0 c76 0 126 -20 142 -57 9 -20 14 -147 16 -462 l3 -434 -87 7 c-48 3 -115
13 -148 22 -215 56 -269 157 -268 509 0 160 13 375 28 460 l5 30 -235 0 -236
0 0 -36z"/>
</g>
</svg>
