<?xml version="1.0" standalone="no"?>
<!DOCTYPE svg PUBLIC "-//W3C//DTD SVG 20010904//EN"
 "http://www.w3.org/TR/2001/REC-SVG-20010904/DTD/svg10.dtd">
<svg version="1.0" xmlns="http://www.w3.org/2000/svg"
 width="935.000000pt" height="719.000000pt" viewBox="0 0 935.000000 719.000000"
 preserveAspectRatio="xMidYMid meet">

<g transform="translate(0.000000,719.000000) scale(0.100000,-0.100000)"
fill="#000000" stroke="none">
<path d="M4840 7089 c-69 -4 -153 -13 -188 -19 -48 -8 -73 -8 -100 1 -26 8
-86 10 -211 5 -266 -10 -389 -33 -631 -114 -46 -15 -96 -25 -130 -24 -30 0
-104 1 -165 2 -204 3 -500 -67 -965 -231 -230 -81 -230 -81 -230 -101 0 -9
-10 -19 -22 -23 -13 -3 -39 -12 -58 -19 -19 -8 -80 -28 -135 -46 -146 -47
-218 -85 -385 -202 -76 -53 -360 -345 -366 -376 -4 -20 -22 -38 -67 -67 -108
-69 -179 -127 -267 -215 -86 -86 -121 -138 -307 -448 -45 -75 -91 -150 -101
-167 -11 -16 -34 -57 -52 -90 -17 -33 -38 -67 -46 -76 -8 -8 -14 -18 -14 -21
0 -4 -18 -37 -39 -75 -21 -38 -54 -109 -71 -158 -32 -86 -33 -97 -34 -240 -1
-119 3 -163 17 -211 18 -59 18 -63 1 -90 -10 -16 -26 -38 -35 -49 -10 -11 -28
-58 -40 -104 -20 -76 -21 -89 -9 -155 19 -108 62 -189 145 -271 43 -42 82 -92
98 -125 33 -68 64 -102 139 -151 109 -70 253 -114 458 -138 51 -7 100 -21 155
-47 109 -50 205 -82 300 -99 88 -15 175 -10 175 10 0 9 -24 13 -87 13 -73 0
-106 6 -193 35 -58 19 -139 50 -180 69 -55 25 -102 38 -170 47 -95 12 -208 35
-245 51 -11 4 -42 16 -70 25 -122 42 -204 107 -250 197 -22 43 -61 93 -109
141 -115 115 -164 245 -136 364 16 68 66 163 85 163 8 0 28 -21 46 -46 48 -70
130 -148 182 -172 82 -39 186 -21 256 42 47 44 111 131 114 157 4 38 -19 31
-41 -14 -26 -52 -104 -132 -154 -158 -79 -40 -162 -15 -254 77 -61 62 -117
142 -108 156 3 4 -4 20 -16 35 -53 67 -70 244 -38 388 17 76 71 196 140 315
24 41 53 90 64 109 10 18 34 58 53 90 40 66 63 108 92 159 12 20 27 44 35 53
8 8 14 19 14 23 0 6 34 60 145 231 59 90 167 197 287 286 169 123 271 151 356
94 58 -38 78 -21 26 24 -36 32 -39 33 -117 29 -57 -2 -81 1 -84 9 -7 19 241
267 347 347 161 122 283 178 575 265 146 43 266 47 315 12 36 -26 76 -86 106
-163 15 -38 33 -68 41 -68 19 0 16 21 -14 92 -41 93 -79 146 -126 170 -36 18
-53 20 -132 15 -49 -3 -96 -3 -102 0 -24 9 -13 20 16 15 19 -2 39 3 58 16 46
34 440 160 676 216 209 51 342 63 467 42 52 -8 121 -18 152 -21 107 -12 256
-77 322 -141 19 -18 46 -58 62 -89 26 -55 27 -59 21 -188 -7 -140 -28 -262
-50 -284 -9 -10 -59 -15 -173 -18 -168 -5 -292 -26 -334 -55 -36 -25 -258
-130 -275 -130 -7 0 -16 -4 -19 -9 -3 -4 -27 -16 -53 -26 -47 -18 -127 -52
-188 -80 -16 -8 -73 -32 -125 -55 -111 -47 -127 -56 -117 -66 16 -16 539 168
707 249 25 12 69 36 98 55 57 35 137 52 347 73 89 9 101 8 110 -7 6 -9 23 -36
38 -60 l29 -44 -21 -55 c-24 -65 -26 -85 -8 -85 8 0 25 35 40 82 l27 82 -31
32 c-39 41 -38 81 3 76 14 -2 29 2 33 7 3 7 -2 11 -14 11 -30 0 -33 12 -21 87
6 37 15 138 20 223 7 146 7 158 -13 200 -27 57 -115 144 -175 173 -26 12 -80
33 -121 47 -41 14 -76 30 -78 36 -5 16 232 83 362 102 97 15 381 26 439 18 31
-5 58 -18 82 -38 59 -52 134 -236 134 -330 0 -47 17 -50 25 -5 12 62 -46 245
-97 310 -28 35 -30 41 -16 51 14 10 235 36 303 35 11 0 108 0 215 1 140 0 216
-4 268 -15 111 -23 129 -36 167 -119 57 -123 79 -224 79 -361 0 -132 -14 -186
-65 -263 -31 -46 -34 -57 -20 -67 15 -9 60 58 85 127 32 87 40 186 26 300 -11
87 -62 271 -81 293 -18 19 -9 45 19 52 15 4 104 8 197 8 136 -1 182 -4 230
-19 81 -25 147 -60 163 -85 11 -19 21 -21 90 -21 42 1 100 -5 128 -13 100 -28
252 -106 376 -193 29 -21 68 -48 85 -60 37 -25 153 -119 219 -178 24 -21 56
-59 70 -85 26 -43 28 -55 33 -216 4 -96 2 -183 -3 -200 -25 -82 -134 -170
-338 -272 -103 -51 -130 -73 -90 -73 25 0 212 95 288 146 108 72 99 90 96
-208 -2 -226 -1 -258 13 -258 13 0 15 35 15 283 0 280 0 282 24 322 24 39 24
42 19 240 -5 182 -7 205 -28 253 -17 36 -20 52 -11 52 12 0 119 -69 212 -137
28 -21 87 -64 132 -95 149 -106 217 -211 247 -383 39 -225 0 -480 -111 -724
-54 -117 -102 -242 -108 -282 -11 -64 -170 -445 -287 -687 -32 -67 -59 -127
-59 -132 0 -6 7 -10 15 -10 9 0 25 21 37 48 11 26 40 88 63 137 24 50 57 124
75 165 18 41 43 99 57 129 58 129 121 302 138 379 4 18 20 63 37 100 57 127
66 147 97 233 45 123 57 171 77 288 16 103 16 251 -2 369 -6 39 -5 42 17 42
29 0 164 -64 256 -122 170 -106 320 -255 393 -395 91 -170 118 -229 151 -323
19 -55 22 -84 21 -188 0 -107 -3 -127 -22 -157 -32 -52 -91 -98 -193 -150
-107 -54 -117 -62 -93 -71 25 -9 191 77 253 131 69 60 87 119 94 310 2 56 -52
206 -127 356 -69 138 -107 201 -166 269 -22 25 -43 50 -47 55 -39 50 -309 245
-338 245 -2 0 -29 12 -59 26 -30 14 -78 34 -107 44 -47 16 -54 23 -68 62 -8
24 -24 58 -34 77 -23 45 -108 135 -154 163 -20 13 -72 50 -116 83 -157 119
-236 166 -316 189 -39 12 -77 36 -141 89 -48 39 -110 88 -138 107 -28 19 -67
47 -86 62 -55 42 -292 157 -359 173 -32 8 -86 15 -118 15 -53 0 -65 4 -117 41
-91 64 -167 79 -390 80 -102 0 -197 -4 -210 -9 -20 -8 -39 -5 -81 13 -105 42
-375 55 -709 34z"/>
<path d="M6544 6527 c-2 -55 -15 -112 -68 -282 -19 -61 -20 -85 -3 -85 25 0
87 120 112 215 20 77 19 132 -3 174 -26 53 -37 47 -38 -22z"/>
<path d="M4630 6215 c-102 -17 -230 -51 -243 -64 -23 -23 6 -22 111 4 123 31
154 29 170 -12 17 -46 42 -140 42 -161 0 -27 31 -122 41 -122 11 0 29 59 29
99 0 20 -6 45 -14 56 -7 11 -16 33 -20 49 -4 16 -18 45 -32 65 -41 61 -36 68
64 75 93 7 142 0 237 -35 53 -20 84 -23 260 -26 196 -4 319 4 313 20 -2 5
-118 9 -258 11 -249 2 -257 3 -328 29 -65 24 -88 27 -185 26 -62 -1 -146 -7
-187 -14z"/>
<path d="M6010 6063 c-69 -23 -90 -26 -255 -26 -143 -1 -191 3 -234 16 -83 26
-105 21 -46 -10 133 -69 361 -90 530 -48 79 19 103 19 145 -4 62 -33 224 -71
304 -71 54 0 176 22 176 31 0 11 -44 17 -165 23 -111 6 -186 26 -294 80 -39
20 -74 36 -78 35 -5 0 -42 -12 -83 -26z"/>
<path d="M2330 6017 c0 -8 7 -28 15 -43 39 -75 -7 -236 -111 -390 -11 -18 -74
-79 -140 -136 -148 -130 -256 -245 -341 -365 -36 -51 -69 -90 -74 -87 -5 2 -8
19 -8 37 1 18 -4 54 -10 80 -16 67 -75 177 -95 177 -12 0 -6 -48 8 -59 32 -27
68 -144 74 -236 4 -79 1 -105 -25 -200 -50 -185 -52 -196 -65 -338 -20 -241
10 -436 94 -602 51 -102 125 -188 244 -286 115 -94 332 -192 444 -201 49 -4
53 15 5 25 -71 15 -198 59 -248 86 -92 49 -104 57 -148 91 -202 154 -313 326
-352 545 -30 166 -19 395 29 580 8 33 18 71 21 85 3 14 14 36 24 49 11 13 19
38 19 55 0 75 112 229 307 422 l142 141 193 98 c106 53 201 102 212 107 13 7
15 13 7 21 -7 7 -46 -7 -136 -51 -70 -34 -131 -62 -136 -62 -14 0 -11 19 5 35
15 16 73 149 89 205 19 70 20 145 0 185 -19 40 -43 58 -43 32z"/>
<path d="M4645 5609 c-44 -4 -141 -12 -216 -18 -74 -5 -148 -15 -163 -21 -16
-6 -88 -17 -160 -26 -72 -8 -151 -19 -176 -24 -25 -6 -81 -17 -125 -24 -44 -8
-93 -19 -108 -25 -16 -6 -43 -11 -60 -11 -18 0 -50 -7 -72 -15 -22 -8 -53 -14
-70 -15 -16 0 -43 -7 -59 -15 -15 -8 -39 -15 -51 -15 -12 0 -47 -7 -76 -16
-121 -36 -337 -108 -379 -126 -25 -10 -56 -24 -70 -30 -14 -6 -32 -14 -40 -19
-8 -5 -22 -12 -30 -15 -63 -23 -166 -87 -242 -150 -40 -33 -96 -99 -177 -205
-11 -14 -43 -72 -71 -130 -28 -57 -55 -112 -60 -121 -20 -36 -42 -158 -45
-247 -5 -148 40 -253 138 -315 67 -43 204 -92 298 -106 41 -6 92 -14 114 -18
22 -4 173 -5 335 -3 605 8 609 8 679 -14 91 -27 162 -93 191 -178 65 -190 15
-381 -140 -536 -126 -126 -265 -188 -447 -198 -102 -6 -131 -2 -246 34 -33 10
-52 12 -59 5 -11 -11 58 -37 143 -53 30 -5 72 -14 94 -19 113 -26 162 -31 299
-30 82 0 154 4 160 9 6 5 29 12 51 16 33 5 54 22 122 91 44 46 83 84 86 84 30
0 65 -203 38 -220 -33 -20 -82 -62 -143 -122 -73 -73 -95 -122 -84 -187 9 -56
40 -81 104 -81 33 0 65 7 83 17 30 18 33 17 111 -23 14 -8 47 -14 72 -14 39 0
52 6 86 36 54 49 52 73 -10 177 -43 72 -50 91 -50 136 0 70 18 106 89 174 l60
59 38 -40 c43 -45 104 -66 221 -78 60 -5 75 -10 84 -28 16 -31 59 -76 89 -92
41 -21 174 -28 275 -14 215 29 418 101 583 204 33 21 128 98 153 124 49 51
178 222 178 236 0 3 11 22 25 43 81 119 185 374 185 453 0 14 9 42 20 63 l21
39 -22 86 c-12 48 -30 104 -40 124 -11 21 -19 42 -19 48 0 7 -21 55 -47 108
-33 64 -69 119 -113 167 -68 74 -166 165 -210 193 -14 9 -41 29 -60 44 -84 65
-302 157 -445 188 -156 33 -405 15 -405 -29 0 -15 22 -14 66 5 54 23 227 23
314 0 118 -32 244 -77 322 -116 181 -90 419 -303 485 -433 92 -183 130 -327
114 -437 -12 -90 -46 -198 -89 -289 -45 -97 -132 -251 -141 -251 -4 0 -15 -16
-24 -36 -40 -83 -171 -225 -268 -288 -24 -16 -55 -37 -69 -46 -73 -48 -235
-112 -370 -145 -148 -37 -341 -42 -403 -11 -53 26 -97 103 -97 172 0 100 50
220 122 294 39 40 53 48 119 63 40 9 153 24 249 32 301 27 420 48 525 95 141
63 202 167 224 386 13 122 -2 331 -25 354 -12 12 -14 4 -14 -67 0 -45 5 -94
12 -108 9 -20 9 -55 0 -148 -28 -296 -112 -388 -406 -447 -104 -21 -181 -26
-190 -11 -3 5 14 15 38 23 97 32 199 101 302 204 106 105 112 113 169 234 20
41 40 83 45 92 6 10 10 30 10 45 0 23 -5 18 -31 -32 -45 -89 -60 -114 -111
-186 -62 -87 -180 -193 -263 -238 -22 -12 -47 -25 -55 -30 -33 -20 -123 -52
-215 -76 -82 -21 -119 -25 -240 -25 -293 0 -496 86 -663 283 -132 154 -216
394 -197 562 10 97 45 153 159 261 76 73 90 90 56 68 -187 -119 -256 -221
-262 -391 -6 -145 60 -354 155 -493 40 -58 168 -190 184 -190 7 0 13 -4 13 -9
0 -9 19 -22 85 -54 95 -47 157 -68 243 -83 53 -10 101 -20 105 -24 12 -11 -1
-34 -28 -47 -20 -9 -25 -8 -25 3 0 11 -16 14 -67 13 -167 -1 -297 -61 -363
-167 -23 -38 -26 -48 -17 -73 14 -37 2 -59 -83 -147 l-67 -69 -2 -77 c-2 -77
-2 -79 49 -162 58 -97 58 -116 4 -164 -39 -34 -96 -41 -130 -15 -10 8 -25 15
-33 15 -8 0 -23 8 -33 17 -18 16 -21 16 -51 0 -18 -9 -50 -19 -72 -23 -36 -5
-44 -2 -78 31 -40 39 -46 69 -22 101 8 10 15 25 15 32 0 8 17 30 38 50 77 74
192 174 192 167 0 -9 51 32 67 55 11 16 11 23 1 39 -10 17 -9 32 6 83 10 35
20 75 23 90 l5 27 -49 -13 c-27 -7 -59 -18 -70 -25 -25 -13 -53 -5 -53 15 0 8
4 14 8 14 13 0 41 70 52 131 6 30 13 68 17 84 10 49 11 74 12 198 1 70 5 117
11 117 5 0 37 -19 69 -42 32 -24 98 -70 145 -102 86 -58 150 -116 193 -172
l22 -29 1 27 c0 15 -12 41 -27 60 -35 42 -92 98 -99 98 -3 0 -23 13 -44 30
-21 17 -40 30 -43 30 -3 0 -50 30 -104 66 -110 75 -222 179 -259 240 -32 55
-54 141 -54 215 0 171 128 473 246 584 25 23 78 58 118 78 68 34 233 89 306
102 56 10 70 16 70 27 0 12 -93 4 -145 -12 -16 -5 -61 -19 -100 -30 -197 -60
-286 -129 -397 -310 -33 -54 -91 -217 -109 -307 -24 -118 -24 -178 0 -270 21
-83 40 -113 128 -205 l64 -67 -2 -103 c-4 -215 -44 -377 -112 -455 -17 -20
-31 -44 -32 -54 0 -24 -61 -101 -100 -126 -64 -41 -118 -56 -225 -60 -58 -3
-123 -1 -144 4 -47 10 -61 33 -21 33 47 0 202 58 257 96 187 131 269 272 274
474 7 236 -59 335 -260 392 -72 20 -132 21 -426 2 -45 -2 -366 -4 -495 -2 -62
1 -232 32 -303 54 -101 33 -150 59 -200 108 -101 96 -124 224 -74 411 19 73
86 218 128 280 13 20 24 39 24 43 1 4 29 43 63 87 66 84 145 154 237 210 88
53 245 129 293 140 15 4 27 11 27 16 0 5 10 9 22 9 13 0 47 10 78 21 98 38
109 42 240 73 30 7 89 22 130 34 41 11 99 23 129 27 30 4 69 14 87 21 18 8 49
14 69 14 19 0 43 4 53 10 22 12 164 37 313 55 64 8 129 19 144 25 16 6 74 13
130 16 55 3 125 10 155 15 30 6 156 14 280 18 l225 8 -170 0 c-93 0 -206 -4
-250 -8z m95 -2275 c0 -9 -11 -25 -25 -36 -64 -50 -82 -152 -45 -262 11 -33
20 -61 20 -64 0 -7 -113 6 -166 19 -65 17 -134 83 -134 129 0 100 97 183 255
219 65 15 95 13 95 -5z m50 -13 c0 -6 -4 -13 -10 -16 -12 -7 -29 -45 -68 -150
-28 -74 -31 -78 -37 -50 -4 17 -9 36 -11 43 -6 19 34 102 51 109 8 3 15 10 15
16 0 11 40 54 53 56 4 1 7 -3 7 -8z m-635 -181 c3 -5 -1 -35 -10 -67 -9 -32
-17 -71 -19 -86 -1 -15 -14 -39 -28 -53 l-25 -26 -5 80 c-3 44 -11 89 -17 101
-10 18 -8 23 21 41 35 21 73 26 83 10z"/>
<path d="M3155 5598 c-11 -6 -48 -38 -82 -71 l-62 -60 -136 16 c-156 20 -198
14 -280 -38 -48 -31 -145 -128 -145 -146 0 -16 16 -10 96 36 44 25 83 45 87
45 5 0 24 7 43 16 32 15 42 15 132 0 198 -33 264 -16 307 79 7 17 32 51 54 76
47 54 41 77 -14 47z"/>
<path d="M1002 5438 c-7 -7 -12 -16 -12 -21 0 -9 -46 -114 -61 -137 -5 -8 -12
-22 -15 -30 -3 -8 -10 -22 -15 -30 -5 -8 -13 -25 -19 -37 -17 -41 -98 -157
-129 -187 -17 -17 -31 -33 -31 -38 0 -15 50 -8 92 14 45 23 138 111 138 130 0
6 6 19 14 27 44 51 99 321 64 321 -8 0 -19 -5 -26 -12z"/>
<path d="M5611 5433 c6 -10 61 -51 123 -90 229 -149 267 -173 272 -173 3 0 17
-8 32 -19 15 -10 68 -45 117 -76 69 -45 136 -104 285 -254 228 -228 309 -336
383 -511 31 -75 51 -176 50 -261 -1 -77 -4 -94 -34 -155 -45 -90 -110 -154
-185 -182 -54 -19 -63 -20 -110 -7 -76 20 -146 59 -187 104 -20 23 -37 44 -37
49 -1 4 -17 25 -36 47 -35 39 -36 39 -30 12 4 -16 19 -47 34 -70 23 -34 27
-52 28 -116 2 -146 79 -305 194 -402 45 -38 66 -79 40 -79 -6 0 -54 -42 -107
-92 -75 -74 -103 -109 -133 -168 -20 -41 -40 -91 -44 -111 -6 -37 -26 -61 -59
-72 -14 -5 -159 -90 -221 -130 -11 -6 -56 -35 -100 -64 -78 -50 -98 -64 -176
-118 -19 -13 -48 -32 -65 -41 -16 -9 -48 -31 -70 -49 -22 -18 -71 -51 -110
-74 -38 -23 -90 -55 -115 -71 -25 -16 -66 -42 -92 -57 -46 -27 -60 -43 -38
-43 12 0 273 132 385 194 302 169 622 333 632 323 3 -3 12 -40 20 -82 16 -88
40 -140 97 -210 110 -134 238 -221 479 -324 26 -11 47 -26 47 -34 0 -8 -15
-26 -34 -41 -19 -14 -54 -56 -79 -93 -122 -188 -174 -455 -117 -608 13 -33 29
-67 36 -76 22 -24 17 -42 -8 -36 -13 3 -61 22 -108 42 -47 20 -139 59 -205 87
-66 27 -138 58 -160 68 -44 21 -263 112 -310 130 -16 6 -48 20 -70 30 -69 33
-237 100 -250 100 -7 0 -15 -6 -18 -12 -2 -9 -32 -13 -103 -12 -170 0 -271 50
-370 179 -76 98 -130 179 -153 224 -46 91 -62 263 -40 431 20 157 22 196 10
184 -14 -13 -31 -102 -39 -211 -4 -45 -11 -85 -15 -89 -4 -5 -30 -1 -56 9 -66
23 -103 21 -162 -8 -27 -14 -73 -30 -102 -36 -29 -6 -70 -15 -92 -20 -61 -13
-168 -11 -211 5 -22 7 -61 16 -89 20 -98 14 -273 94 -357 164 -49 40 -56 43
-93 37 -120 -19 -154 -22 -197 -16 -26 4 -53 12 -60 18 -18 15 -141 79 -164
86 -178 54 -204 58 -364 67 -91 5 -182 14 -203 20 -51 15 -143 108 -190 192
-42 76 -46 103 -15 119 41 22 211 -3 280 -41 26 -15 173 -50 208 -50 32 0 90
25 102 44 21 31 -3 35 -39 6 -38 -30 -87 -25 -225 21 -138 45 -254 66 -311 55
-23 -4 -55 -22 -78 -43 l-40 -36 -122 6 c-116 5 -254 32 -377 72 -25 8 -49 10
-53 6 -13 -13 31 -38 78 -46 22 -4 63 -13 90 -21 111 -31 204 -42 319 -41
l118 2 19 -37 c60 -117 116 -181 194 -220 56 -29 68 -31 195 -35 148 -4 172
-7 275 -33 121 -32 220 -72 269 -111 42 -33 150 -39 280 -15 30 6 40 1 79 -32
64 -56 216 -128 322 -152 50 -12 112 -28 139 -37 54 -18 197 -14 277 7 108 28
155 43 174 56 28 20 79 17 124 -5 52 -27 57 -37 65 -111 15 -141 57 -235 167
-376 38 -49 80 -103 93 -120 60 -77 249 -134 398 -119 l67 7 40 -64 c39 -60
51 -79 106 -158 13 -19 31 -48 40 -63 36 -64 142 -192 179 -216 110 -73 209
-192 392 -471 52 -78 136 -215 176 -285 9 -16 40 -78 69 -136 l52 -106 126 -7
c153 -8 561 -9 569 -2 2 2 -8 30 -21 62 -46 108 -325 809 -332 831 -7 24 2 24
52 1 63 -31 459 42 692 126 152 55 324 176 357 251 20 43 33 58 84 90 64 39
290 268 336 340 176 274 258 539 263 842 2 150 -13 210 -78 324 -23 40 -40 73
-39 75 2 1 23 -2 48 -6 84 -17 101 -8 221 115 124 126 165 183 197 270 48 135
53 355 12 548 -11 51 -28 126 -36 167 -31 140 -53 199 -179 475 -39 86 -74
167 -113 265 -21 51 -33 70 -37 59 -12 -31 28 -139 160 -429 79 -171 82 -181
115 -283 17 -53 30 -107 29 -120 -1 -12 1 -29 4 -37 10 -25 34 -131 47 -201 6
-37 10 -120 9 -186 -3 -123 -29 -233 -74 -321 -20 -40 -238 -271 -273 -291
-43 -23 -195 19 -233 65 -21 25 -145 115 -212 153 -153 87 -236 108 -672 171
-455 66 -751 45 -914 -66 -46 -31 -71 -30 -138 6 -117 65 -183 140 -241 277
-27 64 -33 113 -12 113 4 0 20 -11 35 -24 59 -51 135 -79 210 -79 86 0 137 23
213 97 61 58 94 115 116 203 20 77 20 139 0 244 -21 112 -38 164 -90 267 l-44
87 0 135 c0 74 -5 153 -11 175 -5 22 -13 60 -18 85 -14 73 -51 200 -71 246
-11 24 -20 48 -20 53 0 6 -5 11 -11 11 -7 0 -9 -10 -4 -27 12 -44 24 -102 39
-183 7 -41 16 -82 19 -90 11 -31 18 -302 7 -295 -5 3 -43 48 -83 98 -70 87
-262 287 -277 287 -4 0 -18 10 -31 21 -37 34 -119 84 -215 134 -93 48 -112 58
-141 75 -10 6 -25 13 -33 16 -8 3 -22 10 -30 15 -8 5 -22 12 -30 15 -8 3 -70
32 -138 65 -132 64 -149 69 -131 42z m1909 -2013 c36 -6 112 -17 170 -25 300
-41 313 -44 420 -77 72 -23 234 -100 265 -127 11 -10 32 -24 46 -33 49 -31
188 -169 225 -226 21 -31 49 -86 63 -122 41 -109 33 -332 -21 -525 -20 -73
-57 -184 -68 -205 -11 -20 -15 -20 -868 -18 l-857 3 -70 33 c-146 69 -192 94
-245 132 -30 22 -71 51 -90 64 -76 50 -161 168 -193 266 -53 159 -17 350 93
489 58 75 196 201 219 201 11 0 23 7 98 58 42 29 145 81 186 94 92 30 176 37
367 33 107 -3 224 -10 260 -15z m1070 -1402 c0 -15 -74 -150 -117 -213 -91
-133 -274 -314 -364 -361 -17 -8 -38 -33 -50 -59 -82 -175 -404 -318 -879
-390 -95 -15 -95 -14 -146 10 -29 14 -64 35 -79 47 -15 12 -57 36 -94 53 -174
85 -245 257 -192 466 36 140 77 237 129 309 36 49 93 109 117 123 15 9 239 13
835 17 448 3 821 6 828 8 6 1 12 -3 12 -10z m-2842 -489 c53 -22 144 -61 202
-86 58 -24 132 -56 165 -70 33 -13 74 -31 90 -38 17 -8 75 -32 130 -55 55 -23
145 -61 200 -85 55 -23 162 -68 237 -100 l137 -58 29 -66 c16 -36 35 -84 42
-106 7 -22 16 -44 20 -50 4 -5 19 -41 33 -80 14 -38 37 -99 52 -135 25 -61 47
-115 115 -285 15 -38 40 -101 56 -138 16 -41 24 -71 18 -77 -15 -15 -604 6
-620 22 -7 7 -26 42 -41 78 -16 36 -38 80 -49 98 -137 234 -174 295 -188 311
-9 9 -16 21 -16 25 0 7 -74 117 -137 202 -116 158 -153 197 -233 251 -46 31
-100 91 -161 177 -154 220 -205 306 -183 306 3 0 49 -18 102 -41z"/>
<path d="M2170 5259 c0 -5 19 -47 42 -92 22 -45 52 -104 66 -132 l25 -50 8 35
c10 49 -3 107 -36 160 -40 66 -105 114 -105 79z"/>
<path d="M707 4553 c-17 -16 -3 -23 44 -23 91 0 200 -82 290 -220 77 -117 129
-200 129 -205 0 -5 73 -119 126 -199 10 -16 30 -45 44 -66 69 -104 114 -162
180 -233 71 -76 114 -105 195 -132 22 -7 105 -36 184 -63 137 -48 180 -56 149
-27 -7 7 -81 35 -165 64 -84 28 -173 61 -198 72 -60 27 -162 123 -236 223 -32
45 -66 90 -75 101 -8 11 -24 36 -34 56 -10 19 -26 41 -34 48 -9 8 -16 18 -16
23 0 5 -21 41 -46 81 -76 117 -94 146 -94 151 0 4 -51 84 -92 144 -66 96 -155
173 -228 199 -38 14 -112 17 -123 6z"/>
<path d="M7860 4153 c-107 -16 -250 -50 -325 -75 -109 -37 -195 -76 -195 -89
0 -13 -1 -13 86 22 114 46 322 95 462 109 131 14 364 6 737 -26 199 -17 275
-18 275 -4 0 6 -19 10 -42 10 -24 0 -99 7 -168 15 -263 30 -473 45 -636 44
-93 -1 -180 -3 -194 -6z"/>
<path d="M7295 3970 c-3 -5 3 -10 14 -10 12 0 21 5 21 10 0 6 -6 10 -14 10 -8
0 -18 -4 -21 -10z"/>
<path d="M968 3644 c-4 -3 -32 -11 -65 -19 -77 -17 -167 -51 -171 -64 -5 -14
63 -5 123 15 61 21 178 18 224 -6 44 -22 88 -70 97 -106 3 -13 10 -24 14 -24
13 0 21 66 11 92 -15 39 -61 88 -98 103 -35 15 -124 21 -135 9z"/>
<path d="M2580 3385 c-94 -23 -192 -53 -265 -81 -139 -53 -179 -64 -234 -64
-84 0 -180 23 -306 73 -27 11 -90 33 -140 49 -78 26 -100 29 -165 24 -78 -5
-204 -39 -216 -57 -12 -20 7 -23 59 -6 29 9 69 21 89 27 41 13 151 15 169 4
43 -26 337 -121 417 -134 104 -17 158 -7 391 70 217 73 311 91 352 70 13 -7
56 -39 96 -71 39 -33 74 -59 77 -59 19 0 0 35 -40 72 -99 92 -165 111 -284 83z"/>
<path d="M4243 3071 c-17 -16 -39 -42 -49 -58 l-18 -28 24 20 c30 25 57 55 71
78 13 23 9 21 -28 -12z"/>
<path d="M5168 2143 c7 -3 16 -2 19 1 4 3 -2 6 -13 5 -11 0 -14 -3 -6 -6z"/>
</g>
</svg>
